<?xml version="1.0" encoding="utf-8"?>
<!-- Generator: Adobe Illustrator 26.0.3, SVG Export Plug-In . SVG Version: 6.00 Build 0)  -->
<svg version="1.1" xmlns="http://www.w3.org/2000/svg" xmlns:xlink="http://www.w3.org/1999/xlink" x="0px" y="0px"
	 viewBox="0 0 1000 1000" style="enable-background:new 0 0 1000 1000;" xml:space="preserve">
<style type="text/css">
	.st0{fill:#FFFFFF;}
</style>
<g id="Ebene_2">
	<g>
		<ellipse cx="502" cy="211.82" rx="52" ry="58.82"/>
		<rect x="432" y="283.21" width="140" height="251.35"/>
		<rect x="432" y="547.13" width="60" height="203.87"/>
		<rect x="512" y="547.13" width="60" height="203.87"/>
		<rect x="394" y="283.21" width="30" height="175.95"/>
		<rect x="579" y="283.21" width="30" height="175.95"/>
	</g>
</g>
<g id="Ebene_1">
	<g>
		<path d="M499.5,887.66c-107.83,0-209.26-14.39-285.58-40.53C136.59,820.64,94,785.02,94,746.83
			c0-62.36,114.81-116.47,285.68-134.63l3.32-0.35v10.53l-2.61,0.34C253.35,639.36,168,681.17,168,726.75
			c0,14.51,8.47,28.73,25.17,42.25c16.57,13.42,40.38,25.5,70.77,35.9c62.87,21.53,146.53,33.39,235.56,33.39
			c89.03,0,172.68-11.86,235.56-33.39c30.39-10.41,54.2-22.48,70.77-35.9c16.71-13.52,25.17-27.74,25.17-42.25
			c0-45.58-85.35-87.39-212.39-104.03l-2.61-0.34v-10.53l3.32,0.35C790.19,630.36,905,684.47,905,746.83
			c0,38.2-42.59,73.82-119.92,100.3C708.76,873.26,607.33,887.66,499.5,887.66z"/>
		<path class="st0" d="M619,615.18c163.94,17.43,283,69.78,283,131.65c0,76.12-180.21,137.83-402.5,137.83S97,822.95,97,746.83
			c0-61.87,119.06-114.22,283-131.65v4.57c-125.72,16.47-215,58.17-215,107.01c0,63.26,149.76,114.54,334.5,114.54
			S834,790.01,834,726.75c0-48.84-89.28-90.54-215-107.01V615.18 M613,608.5v6.67v4.57v5.27l5.22,0.68
			c61.93,8.11,114.77,22.23,152.79,40.81c18.61,9.1,32.98,18.97,42.7,29.34c9.48,10.13,14.29,20.53,14.29,30.91
			c0,27.43-34.23,54.88-93.92,75.32c-62.57,21.43-145.88,33.23-234.58,33.23s-172.01-11.8-234.58-33.23
			C205.23,781.63,171,754.18,171,726.75c0-10.38,4.81-20.78,14.29-30.91c9.72-10.37,24.08-20.25,42.7-29.34
			c38.02-18.58,90.86-32.69,152.79-40.81l5.22-0.68v-5.27v-4.57v-6.67l-6.63,0.71c-40.78,4.34-79.19,10.85-114.17,19.36
			c-34.63,8.43-65.14,18.62-90.67,30.31C119.88,683.89,91,714.3,91,746.83c0,39.58,43.31,76.21,121.95,103.14
			c76.63,26.24,178.4,40.69,286.55,40.69s209.92-14.45,286.55-40.69C864.69,823.03,908,786.41,908,746.83
			c0-32.53-28.88-62.94-83.52-87.95c-25.53-11.69-56.04-21.88-90.67-30.31c-34.98-8.51-73.39-15.02-114.17-19.36L613,608.5
			L613,608.5z"/>
	</g>
	<g>
		<path d="M499.5,665.66c-107.83,0-209.26-14.39-285.58-40.53C136.59,598.64,94,563.02,94,524.83
			c0-62.36,114.81-116.47,285.68-134.63l3.32-0.35v10.53l-2.61,0.34C253.35,417.36,168,459.17,168,504.75
			c0,14.51,8.47,28.73,25.17,42.25c16.57,13.42,40.38,25.5,70.77,35.9c62.87,21.53,146.53,33.39,235.56,33.39
			c89.03,0,172.68-11.86,235.56-33.39c30.39-10.41,54.2-22.48,70.77-35.9c16.71-13.52,25.17-27.74,25.17-42.25
			c0-45.58-85.35-87.39-212.39-104.03l-2.61-0.34v-10.53l3.32,0.35C790.19,408.36,905,462.47,905,524.83
			c0,38.2-42.59,73.82-119.92,100.3C708.76,651.26,607.33,665.66,499.5,665.66z"/>
		<path class="st0" d="M619,393.18c163.94,17.43,283,69.78,283,131.65c0,76.12-180.21,137.83-402.5,137.83S97,600.95,97,524.83
			c0-61.87,119.06-114.22,283-131.65v4.57c-125.72,16.47-215,58.17-215,107.01c0,63.26,149.76,114.54,334.5,114.54
			S834,568.01,834,504.75c0-48.84-89.28-90.54-215-107.01V393.18 M613,386.5v6.67v4.57v5.27l5.22,0.68
			c61.93,8.11,114.77,22.23,152.79,40.81c18.61,9.1,32.98,18.97,42.7,29.34c9.48,10.13,14.29,20.53,14.29,30.91
			c0,27.43-34.23,54.88-93.92,75.32c-62.57,21.43-145.88,33.23-234.58,33.23s-172.01-11.8-234.58-33.23
			C205.23,559.63,171,532.18,171,504.75c0-10.38,4.81-20.78,14.29-30.91c9.72-10.37,24.08-20.25,42.7-29.34
			c38.02-18.58,90.86-32.69,152.79-40.81l5.22-0.68v-5.27v-4.57v-6.67l-6.63,0.71c-40.78,4.34-79.19,10.85-114.17,19.36
			c-34.63,8.43-65.14,18.62-90.67,30.31C119.88,461.89,91,492.3,91,524.83c0,39.58,43.31,76.21,121.95,103.14
			c76.63,26.24,178.4,40.69,286.55,40.69s209.92-14.45,286.55-40.69C864.69,601.03,908,564.41,908,524.83
			c0-32.53-28.88-62.94-83.52-87.95c-25.53-11.69-56.04-21.88-90.67-30.31c-34.98-8.51-73.39-15.02-114.17-19.36L613,386.5
			L613,386.5z"/>
	</g>
	<g>
		<path d="M499.5,440.65c-107.83,0-209.26-14.39-285.58-40.53C136.59,373.64,94,338.02,94,299.83
			c0-62.36,114.81-116.47,285.68-134.63l3.32-0.35v10.53l-2.61,0.34C253.35,192.36,168,234.17,168,279.75
			c0,14.51,8.47,28.73,25.17,42.25c16.57,13.42,40.38,25.5,70.77,35.9c62.87,21.53,146.53,33.39,235.56,33.39
			c89.03,0,172.68-11.86,235.56-33.39c30.39-10.41,54.2-22.48,70.77-35.9c16.71-13.52,25.17-27.74,25.17-42.25
			c0-45.58-85.35-87.39-212.39-104.03l-2.61-0.34v-10.53l3.32,0.35C790.19,183.36,905,237.47,905,299.83
			c0,38.2-42.59,73.82-119.92,100.3C708.76,426.26,607.33,440.65,499.5,440.65z"/>
		<path class="st0" d="M619,168.18c163.94,17.43,283,69.78,283,131.65c0,76.12-180.21,137.83-402.5,137.83S97,375.95,97,299.83
			c0-61.87,119.06-114.22,283-131.65v4.57c-125.72,16.47-215,58.17-215,107.01c0,63.26,149.76,114.54,334.5,114.54
			S834,343.01,834,279.75c0-48.84-89.28-90.54-215-107.01V168.18 M613,161.5v6.67v4.57v5.27l5.22,0.68
			c61.93,8.11,114.77,22.23,152.79,40.81c18.61,9.1,32.98,18.97,42.7,29.34c9.48,10.13,14.29,20.53,14.29,30.91
			c0,27.43-34.23,54.88-93.92,75.32c-62.57,21.43-145.88,33.23-234.58,33.23s-172.01-11.8-234.58-33.23
			C205.23,334.63,171,307.18,171,279.75c0-10.38,4.81-20.78,14.29-30.91c9.72-10.37,24.08-20.25,42.7-29.34
			c38.02-18.58,90.86-32.69,152.79-40.81l5.22-0.68v-5.27v-4.57v-6.67l-6.63,0.71c-40.78,4.34-79.19,10.85-114.17,19.36
			c-34.63,8.43-65.14,18.62-90.67,30.31C119.88,236.89,91,267.3,91,299.83c0,39.58,43.31,76.21,121.95,103.14
			c76.63,26.24,178.4,40.69,286.55,40.69s209.92-14.45,286.55-40.69C864.69,376.03,908,339.41,908,299.83
			c0-32.53-28.88-62.94-83.52-87.95c-25.53-11.69-56.04-21.88-90.67-30.31c-34.98-8.51-73.39-15.02-114.17-19.36L613,161.5
			L613,161.5z"/>
	</g>
</g>
</svg>
