<?xml version="1.0" encoding="utf-8"?>
<!-- Generator: Adobe Illustrator 26.0.3, SVG Export Plug-In . SVG Version: 6.00 Build 0)  -->
<svg version="1.1" id="Ebene_1" xmlns="http://www.w3.org/2000/svg" xmlns:xlink="http://www.w3.org/1999/xlink" x="0px" y="0px"
	 viewBox="0 0 1000 1000" style="enable-background:new 0 0 1000 1000;" xml:space="preserve">
<ellipse cx="502" cy="211.82" rx="52" ry="58.82"/>
<path d="M572,534.56v-93.12c-23.69,1.46-47.93,2.21-72.5,2.21c-22.85,0-45.4-0.65-67.5-1.92v92.82H572z"/>
<path d="M572,385.59V283.21H432v102.75c21.96,1.54,44.55,2.34,67.5,2.34C524.2,388.29,548.47,387.37,572,385.59z"/>
<path d="M432,547.13v63.83c19.57,1.37,39.63,2.15,60,2.31v-66.13H432z"/>
<path d="M492,751v-82.38c-20.28-0.13-40.32-0.76-60-1.89V751H492z"/>
<path d="M572,751v-84.56c-19.66,1.21-39.7,1.93-60,2.14V751H572z"/>
<path d="M512,547.13v66.08c20.39-0.26,40.45-1.13,60-2.61v-63.47H512z"/>
<path d="M424,459.15v-17.9c-10.11-0.65-20.11-1.43-30-2.34v20.24H424z"/>
<path d="M424,283.21h-30v99.26c9.84,1.12,19.85,2.09,30,2.89V283.21z"/>
<path d="M609,283.21h-30v101.82c10.16-0.85,20.16-1.86,30-3.03V283.21z"/>
<path d="M579,459.15h30v-20.61c-9.88,0.95-19.89,1.77-30,2.45V459.15z"/>
<path d="M97,746.83c0,76.12,180.21,137.83,402.5,137.83S902,822.95,902,746.83c0-43.69-59.38-82.63-152.01-107.89
	c-6.38,1.73-12.9,3.38-19.53,4.97C794.25,664.76,834,694.16,834,726.75c0,63.26-149.76,114.54-334.5,114.54S165,790.01,165,726.75
	c0-32.59,39.75-61.99,103.54-82.84c-6.63-1.58-13.15-3.24-19.53-4.97C156.38,664.19,97,703.13,97,746.83z"/>
<path d="M902,524.83c0-44.57-61.79-84.2-157.64-109.39c-6.32,1.65-12.75,3.23-19.3,4.75C792,441.12,834,471.25,834,504.75
	c0,63.26-149.76,114.54-334.5,114.54S165,568.01,165,504.75c0-33.5,42-63.63,108.94-84.57c-6.55-1.51-12.98-3.1-19.3-4.75
	C158.79,440.63,97,480.26,97,524.83c0,76.12,180.21,137.83,402.5,137.83S902,600.95,902,524.83z"/>
<path d="M97,299.83c0,76.12,180.21,137.83,402.5,137.83S902,375.95,902,299.83c0-61.87-119.06-114.22-283-131.65v4.57
	c125.72,16.47,215,58.17,215,107.01c0,63.26-149.76,114.54-334.5,114.54S165,343.01,165,279.75c0-48.84,89.28-90.54,215-107.01
	v-4.57C216.06,185.61,97,237.96,97,299.83z"/>
</svg>
